<mxfile host="app.diagrams.net" modified="2023-12-13T14:25:00.663Z" agent="Mozilla/5.0 (X11; Linux x86_64; rv:109.0) Gecko/20100101 Firefox/115.0" etag="p8eXh-rFVUympYDYcT7u" version="22.1.8" type="github">
  <diagram name="Page-1" id="d4woU64G4JHCOEICRbeg">
    <mxGraphModel dx="1434" dy="749" grid="1" gridSize="10" guides="1" tooltips="1" connect="1" arrows="1" fold="1" page="1" pageScale="1" pageWidth="850" pageHeight="1100" math="0" shadow="0">
      <root>
        <mxCell id="0" />
        <mxCell id="1" parent="0" />
      </root>
    </mxGraphModel>
  </diagram>
</mxfile>
